<svg width="50" height="50" viewBox="0 0 50 50" fill="none" xmlns="http://www.w3.org/2000/svg">
<path d="M22.4563 1.56678C23.5088 -0.52226 26.4912 -0.52226 27.5436 1.56678L30.3699 7.17658C31.0045 8.43661 32.4662 9.04203 33.806 8.5999L39.7711 6.63154C41.9924 5.89855 44.1015 8.0075 43.3684 10.2288L41.4 16.194C40.9579 17.5338 41.5632 18.9954 42.8232 19.6302L48.4331 22.4563C50.5223 23.5088 50.5223 26.4912 48.4331 27.5436L42.8232 30.3699C41.5632 31.0045 40.9579 32.4662 41.4 33.806L43.3684 39.7711C44.1015 41.9924 41.9924 44.1015 39.7711 43.3684L33.806 41.4C32.4662 40.9579 31.0045 41.5632 30.3699 42.8232L27.5436 48.4331C26.4912 50.5223 23.5088 50.5223 22.4563 48.4331L19.6302 42.8232C18.9954 41.5632 17.5338 40.9579 16.194 41.4L10.2288 43.3684C8.0075 44.1015 5.89855 41.9924 6.63154 39.7711L8.5999 33.806C9.04203 32.4662 8.43661 31.0045 7.17658 30.3699L1.56678 27.5436C-0.52226 26.4912 -0.52226 23.5088 1.56678 22.4563L7.17658 19.6302C8.43661 18.9954 9.04203 17.5338 8.5999 16.194L6.63154 10.2288C5.89855 8.0075 8.0075 5.89855 10.2288 6.63154L16.194 8.5999C17.5338 9.04203 18.9954 8.43661 19.6302 7.17658L22.4563 1.56678Z" fill="#FF8383"/>
<path d="M17.0894 25.6342L22.7859 31.3306L34.1788 19.9377" stroke="#373737" stroke-width="1.5" stroke-linecap="round" stroke-linejoin="round"/>
</svg>
